<svg id="Layer_1" data-name="Layer 1" xmlns="http://www.w3.org/2000/svg" viewBox="0 0 1106.08 746.27"><defs><style>.cls-1{font-size:72px;}.cls-1,.cls-2{font-family:Mistral;}.cls-2{font-size:349.01px;}.cls-2,.cls-3{fill:none;stroke:#fff;}</style></defs><text class="cls-1" transform="translate(116.5 723.42)">404</text><text class="cls-2" transform="translate(0.5 290.96) scale(1.12 1)">404</text><path class="cls-3" d="M661.92-466.26a26.82,26.82,0,0,1,6,.85,63,63,0,0,1,7.9,2.56,41.36,41.36,0,0,1,7.72,4.68q2.57,2.13,2.57,4.34a24,24,0,0,1-.76,4.94,77.23,77.23,0,0,1-2.48,8A97.44,97.44,0,0,0,679.74-429q-2,9-5.24,23.5-3.63,15.15-5.24,23.67a88.94,88.94,0,0,0-1.62,10.21,5,5,0,0,0,1.05,3.5A4.42,4.42,0,0,0,672-367q4.58,0,13.72-4t12.19-4a4.51,4.51,0,0,1,4,2,10.47,10.47,0,0,1,1.33,5.87q0,1.37-.09,2.73a22.05,22.05,0,0,1-.29,2.39c-1.9,1.14-4.06,2.51-6.46,4.1s-5.39,3.48-8.95,5.64a104.67,104.67,0,0,1-9.51,5q-5,2.31-9.7,5a17.81,17.81,0,0,0-5.23,5.8,41.91,41.91,0,0,0-4.09,9.55c-.51,1.82-1,3.41-1.34,4.77a8.16,8.16,0,0,0-.38,3.24v3.92q-.75,6.66-2.66,16.79t-4.95,23.78l1.91,5.12q-.57,2.38-8.19,8.18t-10.27,5.8a5.1,5.1,0,0,1-4.38-2.56q-1.71-2.55-1.71-8a225.47,225.47,0,0,1,1.81-24,227.33,227.33,0,0,0,1.81-23.85,28.1,28.1,0,0,1,1-6,28.39,28.39,0,0,0,1-6.05,4.36,4.36,0,0,0-1.33-3.41,6.48,6.48,0,0,0-4.38-1.2,120.14,120.14,0,0,0-16.12,1.79,118.62,118.62,0,0,1-16.5,1.79q-21.75,0-32.9-6.73t-11.35-20a29.48,29.48,0,0,0-.48-4.86q-.48-2.8-1-6.22a70.43,70.43,0,0,0,.76-8.35q.2-4.77.19-10.91A231.23,231.23,0,0,1,554-430.56,181.85,181.85,0,0,1,567.24-471a34.56,34.56,0,0,0,2.19-5.71,16.26,16.26,0,0,0,.67-4.17,11.31,11.31,0,0,0-3.24-4.09l-.57-1.2q.38-3.74,4.76-15.59T577-515a149.81,149.81,0,0,1,21.62-14.06q9.24-4.68,15.53-4.68,3.81,0,5.71,2t1.91,6.48l-11.62,28.46q-4.4,10.56-10.1,26.92t-13.15,38q-.57,2.73-1.62,6.73t-3,9.12a191.67,191.67,0,0,0-6.57,22,77.7,77.7,0,0,0-2.19,16.7,11.87,11.87,0,0,0,3.24,8.52q3.22,3.42,9.71,5.11,6.1.69,11.53,1.79t11.14,1.79a37.86,37.86,0,0,1,6-.85q4.1-.35,10.41-.34,4.41-.51,7.67-1a2.34,2.34,0,0,0,1.92-1.28,7.37,7.37,0,0,0,.58-3.32c.37-4.55.85-8.89,1.41-13s1.17-7.87,1.8-11.16q.38-5.62,1.13-13.64t2.27-19.08q1.88-9.89,2.92-16.53a71.41,71.41,0,0,0,1-10.06q0-4.6,5.34-10.22T661.92-466.26Z" transform="translate(73.5 604.42)"/><path class="cls-3" d="M764.8-515q1.51-1.18,4.19-3.15a56,56,0,0,0,5.53-4.69,58.39,58.39,0,0,1,17.33-12.78,45.91,45.91,0,0,1,19.62-4.26q3.81,0,9.24,2.64A86.55,86.55,0,0,1,832.62-530a65.22,65.22,0,0,1,16,16.61A58.2,58.2,0,0,1,857-492.5q.75,4.77,1.43,15.76t.66,28.38q0,8-2.86,23t-8.76,36.81q-1.14,2.22-2.48,5.2t-3,7.41a17.64,17.64,0,0,1-1.72,6.05c-1,2.22-2.16,4.63-3.43,7.25q-6.28,12.61-11,20.87a92.82,92.82,0,0,1-8,12.19,94.54,94.54,0,0,1-13.43,15.16,65.62,65.62,0,0,1-15.91,10.74,84.07,84.07,0,0,1-8.19,3.66,16.36,16.36,0,0,1-5.33,1.28c-.64,0-1.65-.06-3-.17s-3.24-.17-5.53-.17a43,43,0,0,0-4.57-.08c-1.27.05-2.6.08-4,.08a13.6,13.6,0,0,1-3-.42,18.18,18.18,0,0,1-4.29-1.79,71,71,0,0,1-14.76-8.27,61.56,61.56,0,0,1-9.81-8.95,48.15,48.15,0,0,1-5.24-10.31q-2.58-6.56-5.24-15.59a91.22,91.22,0,0,1-3.24-15.76,48.78,48.78,0,0,1,.19-13c-.64-1.36-1.11-2.47-1.43-3.32a6.62,6.62,0,0,1-.48-2.3c.39-3,.7-5.46,1-7.5a29.9,29.9,0,0,0,.47-5.54q.11-4,.1-10.65a135.6,135.6,0,0,1,2.47-25.31,197.74,197.74,0,0,1,7-26.5q1.16-3.06,2.77-8.09t3.52-11.85a72.36,72.36,0,0,0,4.1-9.11q2.19-5.72,4.66-13.38a12.51,12.51,0,0,1,1.24-4.6c.83-1.93,1.87-4.38,3.15-7.33q1.71-3.41,3.33-6.9t3.72-7.08a17,17,0,0,1,5.52-5.53,15.15,15.15,0,0,1,8-2,7,7,0,0,1,3.91.85,2.74,2.74,0,0,1,1.24,2.38q-1.15,5.8-2.48,10.91Zm5.91,185.42q9.13,0,18-6.9t17.43-21q3.43-5.46,8.67-15.68t12.48-25.56q1.51-3.92,4.19-18t2.67-19.51q0-30.86-11.24-46.27T790-498a26.08,26.08,0,0,0-9.62,2.22,70.19,70.19,0,0,0-12.1,6.65A48.63,48.63,0,0,0,757.66-481c-2.36,2.56-3.53,5-3.53,7.24q.76,3.42,1.33,5.8a34.66,34.66,0,0,1-1.52,6.39q-1.53,5.2-4,14.23a87.63,87.63,0,0,0-2.67,11.59,46.27,46.27,0,0,0-.57,9q.38,9,.95,17.89a28.37,28.37,0,0,1-1.14,6.56,28.52,28.52,0,0,0-1.14,6.57q1.14,4.26,2.28,8.35a25.38,25.38,0,0,1,.29,3.15c.06,1.42.1,3.15.1,5.2a85.38,85.38,0,0,0,1.23,14.14,82.29,82.29,0,0,0,4.1,15q3.24,10.39,7.71,15.34T770.71-329.58Z" transform="translate(73.5 604.42)"/><path class="cls-3" d="M990.74-466.26a26.82,26.82,0,0,1,6,.85,63,63,0,0,1,7.9,2.56,41.36,41.36,0,0,1,7.72,4.68q2.57,2.13,2.57,4.34a24,24,0,0,1-.76,4.94,77.23,77.23,0,0,1-2.48,8,97.44,97.44,0,0,0-3.14,11.92q-2,9-5.24,23.5-3.63,15.15-5.24,23.67a88.94,88.94,0,0,0-1.62,10.21,5,5,0,0,0,1,3.5,4.42,4.42,0,0,0,3.33,1.1q4.57,0,13.72-4t12.19-4a4.51,4.51,0,0,1,4,2,10.47,10.47,0,0,1,1.33,5.87q0,1.37-.09,2.73a22.05,22.05,0,0,1-.29,2.39c-1.9,1.14-4.06,2.51-6.46,4.1s-5.4,3.48-9,5.64a104.67,104.67,0,0,1-9.51,5q-4.95,2.31-9.7,5a17.94,17.94,0,0,0-5.24,5.8,42.81,42.81,0,0,0-4.09,9.55q-.75,2.73-1.33,4.77a8.16,8.16,0,0,0-.38,3.24v3.92q-.76,6.66-2.66,16.79t-5,23.78l1.91,5.12q-.57,2.38-8.19,8.18t-10.27,5.8a5.1,5.1,0,0,1-4.38-2.56q-1.71-2.55-1.71-8a227.6,227.6,0,0,1,1.8-24,225.18,225.18,0,0,0,1.82-23.85,28.1,28.1,0,0,1,1-6,28.39,28.39,0,0,0,1-6.05,4.36,4.36,0,0,0-1.33-3.41,6.48,6.48,0,0,0-4.38-1.2,120.14,120.14,0,0,0-16.12,1.79,118.62,118.62,0,0,1-16.5,1.79q-21.75,0-32.91-6.73t-11.34-20a29.48,29.48,0,0,0-.48-4.86q-.48-2.8-1.05-6.22a72.6,72.6,0,0,0,.76-8.35q.2-4.77.19-10.91a230.51,230.51,0,0,1,4.48-46.61A181.85,181.85,0,0,1,896.06-471a35.48,35.48,0,0,0,2.19-5.71,16.26,16.26,0,0,0,.67-4.17,11.31,11.31,0,0,0-3.24-4.09l-.57-1.2q.38-3.74,4.76-15.59T905.78-515a149.81,149.81,0,0,1,21.62-14.06q9.24-4.68,15.53-4.68c2.53,0,4.44.68,5.71,2s1.91,3.53,1.91,6.48l-11.63,28.46q-4.38,10.56-10.09,26.92t-13.15,38q-.57,2.73-1.62,6.73T911.11-416a191.67,191.67,0,0,0-6.57,22,77.7,77.7,0,0,0-2.19,16.7,11.83,11.83,0,0,0,3.24,8.52q3.23,3.42,9.71,5.11,6.11.69,11.53,1.79T938-360.09a37.86,37.86,0,0,1,6-.85q4.1-.35,10.41-.34,4.41-.51,7.67-1a2.34,2.34,0,0,0,1.92-1.28,7.37,7.37,0,0,0,.58-3.32c.37-4.55.85-8.89,1.41-13s1.17-7.87,1.8-11.16q.38-5.62,1.13-13.64t2.27-19.08q1.88-9.89,2.92-16.53a71.41,71.41,0,0,0,1-10.06q0-4.6,5.34-10.22T990.74-466.26Z" transform="translate(73.5 604.42)"/></svg>